HIERARCHY
ROOT ui
{
	 OFFSET 0 0 0
	 CHANNELS 3 XPosition YPosition Z Position
	 EndSite
	 {
	 OFFSET 0 -1 0
	 }
}
ROOT li
{
	 OFFSET 0 0 0
	 CHANNELS 3 XPosition YPosition Z Position
	 EndSite
	 {
	 OFFSET 0 -1 0
	 }
}
ROOT ul
{
	 OFFSET 0 0 0
	 CHANNELS 3 XPosition YPosition Z Position
	 EndSite
	 {
	 OFFSET 0 -1 0
	 }
}
ROOT ll
{
	 OFFSET 0 0 0
	 CHANNELS 3 XPosition YPosition Z Position
	 EndSite
	 {
	 OFFSET 0 -1 0
	 }
}
ROOT tt
{
	 OFFSET 0 0 0
	 CHANNELS 3 XPosition YPosition Z Position
	 EndSite
	 {
	 OFFSET 0 -1 0
	 }
}
ROOT tb
{
	 OFFSET 0 0 0
	 CHANNELS 3 XPosition YPosition Z Position
	 EndSite
	 {
	 OFFSET 0 -1 0
	 }
}
ROOT td
{
	 OFFSET 0 0 0
	 CHANNELS 3 XPosition YPosition Z Position
	 EndSite
	 {
	 OFFSET 0 -1 0
	 }
}
ROOT v
{
	 OFFSET 0 0 0
	 CHANNELS 3 XPosition YPosition Z Position
	 EndSite
	 {
	 OFFSET 0 -1 0
	 }
}
ROOT bn
{
	 OFFSET 0 0 0
	 CHANNELS 3 XPosition YPosition Z Position
	 EndSite
	 {
	 OFFSET 0 -1 0
	 }
}
MOTION
Frames: 13
Frame Time: 0.002
0.014510755538940429	-0.0010941779613494872	0		0.5920452270507812	-2.490828857421875	0		-0.9305992431640625	0.16884738159179688	0		-0.6752744750976563	-2.162095458984375	0		2.218494384765625	-1.3627562255859376	0		3.60835400390625	-0.7125260009765625	0		4.88309716796875	-0.291272216796875	0		5.9630849609375	0.5365321655273437	0		-0.06399222564697266	5.95026416015625	0		
-0.06314372634887695	0.0012188910245895387	0		0.563549560546875	-2.489350830078125	0		-0.931295166015625	0.16872447204589844	0		-0.6527646484375	-2.15961181640625	0		2.217580078125	-1.3806656494140626	0		3.620376220703125	-0.731573974609375	0		4.8800400390625	-0.31296701049804687	0		5.96236474609375	0.5368704833984375	0		-0.19744621276855467	5.93055615234375	0		
0.009973114013671874	-0.004155292987823487	0		0.5349249877929687	-2.488870849609375	0		-1.0070952758789062	0.16993626403808593	0		-0.6934454956054688	-2.161002197265625	0		2.222447509765625	-1.404671875	0		3.61834228515625	-0.747360595703125	0		4.87926123046875	-0.3126871337890625	0		5.96152734375	0.537224853515625	0		-0.06530293273925782	5.94912060546875	0		
0.012135644912719727	-0.0012606019973754883	0		0.5342090454101562	-2.4888857421875	0		-0.992106201171875	0.16353111267089843	0		-0.6843275146484376	-2.16927880859375	0		2.189448486328125	-1.4160006103515625	0		3.638306396484375	-0.758529296875	0		4.89421337890625	-0.32267919921875	0		5.964740234375	0.5455181274414063	0		-0.23209736633300782	5.9229873046875	0		
0.011182954788208008	-0.001308871030807495	0		0.53751904296875	-2.483968505859375	0		-0.9839485473632813	0.17025244140625	0		-0.7180343017578125	-2.16379541015625	0		2.19240087890625	-1.4269642333984376	0		3.61937451171875	-0.760004638671875	0		4.89017822265625	-0.32832980346679685	0		5.97174755859375	0.5457481689453125	0		-0.23346734619140624	5.922921875	0		
0.014263324737548828	0.002575373888015747	0		0.5606126708984375	-2.48939697265625	0		-0.9849498291015625	0.1701376495361328	0		-0.6879993286132813	-2.1714345703125	0		2.228225341796875	-1.4435029296875	0		3.65194189453125	-0.788388671875	0		4.89610546875	-0.3341541442871094	0		5.97072021484375	0.5461216430664062	0		-0.20078993225097655	5.92726220703125	0		
0.009190877914428712	-0.0013952289819717408	0		0.5317877197265625	-2.48891064453125	0		-0.9859646606445313	0.17002679443359375	0		-0.6909028930664063	-2.1744892578125	0		2.2308154296875	-1.472455078125	0		3.628875	-0.7947904052734375	0		4.90100244140625	-0.3409584655761719	0		5.96869677734375	0.547513427734375	0		-0.06982456970214844	5.94789501953125	0		
0.008194314956665038	-0.001432968020439148	0		0.5808165283203125	-2.497781494140625	0		-0.9869730834960937	0.16992013549804688	0		-0.6937835083007813	-2.176540283203125	0		2.19568212890625	-1.485744873046875	0		3.628619873046875	-0.8125921630859375	0		4.89282177734375	-0.35253378295898435	0		5.97664306640625	0.5467318115234375	0		-0.20361355590820313	5.92715380859375	0		
0.007221434116363525	-0.0014667550325393676	0		0.5120244140625	-2.496596923828125	0		-0.9779765014648437	0.16864508056640626	0		-0.6867824096679688	-2.18675927734375	0		2.23942236328125	-1.5084063720703125	0		3.64624853515625	-0.8387041625976562	0		4.9135400390625	-0.37161251831054687	0		5.97149462890625	0.5391763916015625	0		-0.056476100921630856	5.95553369140625	0		
0.02325014114379883	-0.0037893850803375245	0		0.5931748046875	-2.502008544921875	0		-0.9789219970703125	0.16855032348632812	0		-0.6756766967773438	-2.193041259765625	0		2.248517822265625	-1.5124593505859374	0		3.660471435546875	-0.8327514038085938	0		4.91983642578125	-0.3594381408691406	0		5.9749560546875	0.5644710083007812	0		-0.18918434143066407	5.93476708984375	0		
0.012523165702819824	0.00535883092880249	0		0.5385094604492188	-2.49806591796875	0		-0.9798162841796875	0.16846420288085937	0		-0.7032623291015625	-2.18364453125	0		2.238507568359375	-1.5251839599609376	0		3.6593134765625	-0.8515405883789062	0		4.93275	-0.3723893127441406	0		5.9768984375	0.5567753295898438	0		-0.23971238708496093	5.91957666015625	0		
0.004579257011413574	-0.001536545991897583	0		0.583619384765625	-2.5108388671875	0		-0.9847188110351562	0.16445851135253906	0		-0.7022330932617188	-2.199735107421875	0		2.239532470703125	-1.5391016845703125	0		3.654179443359375	-0.8722706909179687	0		4.91784619140625	-0.3778751525878906	0		5.96804248046875	0.5572471313476562	0		-0.2077701416015625	5.925978515625	0		
0.003819155931472778	-0.001545639991760254	0		0.5290517578125	-2.50689404296875	0		-0.981419921875	0.16832786560058594	0		-0.66418994140625	-2.218446044921875	0		2.233752197265625	-1.5449056396484375	0		3.666156005859375	-0.8903055419921875	0		4.93467626953125	-0.4029273681640625	0		5.97525146484375	0.5574180908203125	0		-0.20884515380859375	5.9259580078125	0		
